<?xml version="1.0" encoding="UTF-8" standalone="no"?>
<!DOCTYPE svg PUBLIC "-//W3C//DTD SVG 1.1//EN" "http://www.w3.org/Graphics/SVG/1.1/DTD/svg11.dtd">
<svg version="1.1" xmlns="http://www.w3.org/2000/svg" xmlns:xlink="http://www.w3.org/1999/xlink" preserveAspectRatio="xMidYMid meet" viewBox="0.6881167218765967 209.9955883383522 203.67166146230574 223.01141389831855" width="80" height="87.75"><defs><path d="M1.69 289.26C1.69 246.11 36.8 211 79.95 211C101.97 211 123.08 220.35 137.89 236.65C142.43 241.64 142.06 249.35 137.07 253.89C137.07 253.89 137.07 253.89 137.07 253.89C132.07 258.43 124.35 258.05 119.82 253.07C109.6 241.83 95.13 235.43 79.95 235.41C50.26 235.41 26.1 259.57 26.1 289.26C26.1 318.96 50.26 343.11 79.95 343.11C95.13 343.1 109.6 336.69 119.82 325.46C124.35 320.47 132.07 320.1 137.07 324.63C142.06 329.17 142.43 336.89 137.89 341.88C137.89 341.88 137.89 341.88 137.89 341.88C123.05 358.2 102.01 367.51 79.95 367.53C36.8 367.53 1.69 332.42 1.69 289.26Z" id="aUDG5zKDZ"></path><path d="M65.15 404.35C60.69 399.29 61.17 391.58 66.23 387.12C71.18 382.75 78.71 383.11 83.22 387.93C93.44 399.17 107.91 405.58 123.09 405.59C152.79 405.59 176.94 381.43 176.94 351.74C176.94 322.05 152.79 297.89 123.09 297.89C107.91 297.91 93.44 304.32 83.22 315.55C78.69 320.54 70.97 320.91 65.98 316.37C60.99 311.84 60.62 304.12 65.15 299.13C65.15 299.13 65.15 299.13 65.15 299.13C80 282.81 101.03 273.5 123.09 273.48C166.25 273.48 201.36 308.59 201.36 351.74C201.36 394.9 166.25 430.01 123.09 430.01C101.03 429.99 80 420.67 65.15 404.35Z" id="a45Rc2eUFW"></path></defs><g><g><use xlink:href="#aUDG5zKDZ" opacity="1" fill="#16806f" fill-opacity="1"></use><g><use xlink:href="#aUDG5zKDZ" opacity="1" fill-opacity="0" stroke="#000000" stroke-width="1" stroke-opacity="0"></use></g></g><g><use xlink:href="#a45Rc2eUFW" opacity="1" fill="#16806f" fill-opacity="1"></use><g><use xlink:href="#a45Rc2eUFW" opacity="1" fill-opacity="0" stroke="#000000" stroke-width="1" stroke-opacity="0"></use></g></g></g></svg>